<svg xmlns="http://www.w3.org/2000/svg" width="512" height="512" viewBox="0 0 512 512" role="img" aria-labelledby="title desc">
  <title id="title">Chefesque outline saucepan logo</title>
  <desc id="desc">A lean, outline-only Forest Shadow saucepan with a fitted lid on an Oat Cream background.</desc>
  <rect width="512" height="512" fill="#F6F0E4"/>
  <g fill="none" stroke="#173229" stroke-width="26" stroke-linecap="round" stroke-linejoin="round">
    <path d="M158 252H358C368 252 376 262 372 274L356 324C350 344 330 354 304 354H212C186 354 166 344 160 324L144 274C140 262 148 252 158 252Z"/>
    <path d="M188 226C212 198 236 186 260 186C284 186 308 198 332 226H188Z"/>
    <path d="M240 154H280C289 154 296 161 296 170C296 179 289 186 280 186H240C231 186 224 179 224 170C224 161 231 154 240 154Z"/>
    <path d="M372 282H426C443 282 456 295 456 312C456 329 443 342 426 342H362"/>
  </g>
</svg>
