<svg xmlns="http://www.w3.org/2000/svg" width="512" height="512" viewBox="0 0 512 512" role="img" aria-labelledby="title desc">
  <title id="title">Chefesque simplified outline saucepan logo</title>
  <desc id="desc">A simple Deep Forest outline saucepan with a fitted lid on an Oat Cream background.</desc>
  <rect width="512" height="512" fill="#F6F0E4"/>
  <g fill="none" stroke="#244437" stroke-width="24" stroke-linecap="round" stroke-linejoin="round">
    <path d="M150 262H356L340 330C337 341 329 346 316 346H206C193 346 185 341 182 330L166 262"/>
    <path d="M198 226C219 202 239 190 260 190C281 190 301 202 322 226M224 238H342M244 178H276"/>
    <path d="M356 288H420C433 288 440 295 440 308C440 321 433 328 420 328H348"/>
  </g>
</svg>
